<svg xmlns="http://www.w3.org/2000/svg" viewBox="0 0 23.541 23.541">
  <path id="building-bold" d="M34.324,33.106H32.294V14.435H32.7A1.218,1.218,0,1,0,32.7,12H14.841a1.218,1.218,0,0,0,0,2.435h.406V33.106H13.218a1.218,1.218,0,0,0,0,2.435H34.324a1.218,1.218,0,0,0,0-2.435ZM17.682,14.435H29.859V33.106H27.424V29.453a1.218,1.218,0,0,0-1.218-1.218H21.335a1.218,1.218,0,0,0-1.218,1.218v3.653H17.682Zm7.306,18.671H22.553V30.671h2.435Zm-5.682-15.83a1.218,1.218,0,0,1,1.218-1.218h1.218a1.218,1.218,0,0,1,0,2.435H20.524A1.218,1.218,0,0,1,19.306,17.277Zm5.277,0A1.218,1.218,0,0,1,25.8,16.059h1.218a1.218,1.218,0,1,1,0,2.435H25.8A1.218,1.218,0,0,1,24.583,17.277Zm-5.277,4.059a1.218,1.218,0,0,1,1.218-1.218h1.218a1.218,1.218,0,0,1,0,2.435H20.524A1.218,1.218,0,0,1,19.306,21.335Zm5.277,0A1.218,1.218,0,0,1,25.8,20.118h1.218a1.218,1.218,0,1,1,0,2.435H25.8A1.218,1.218,0,0,1,24.583,21.335Zm-5.277,4.059a1.218,1.218,0,0,1,1.218-1.218h1.218a1.218,1.218,0,0,1,0,2.435H20.524A1.218,1.218,0,0,1,19.306,25.394Zm5.277,0A1.218,1.218,0,0,1,25.8,24.177h1.218a1.218,1.218,0,1,1,0,2.435H25.8A1.218,1.218,0,0,1,24.583,25.394Z" transform="translate(-12 -12)" fill="currentColor"/>
</svg>
