<svg xmlns="http://www.w3.org/2000/svg" viewBox="0 0 23.541 23.541">
  <path id="note-bold_1_" data-name="note-bold (1)" d="M34.592,37.417A1.412,1.412,0,0,1,36,36h7.533a1.412,1.412,0,0,1,0,2.825H36A1.412,1.412,0,0,1,34.592,37.417Zm3.767,3.3H36a1.412,1.412,0,1,0,0,2.825h2.354a1.412,1.412,0,1,0,0-2.825ZM51.541,30.354V43.148a2.338,2.338,0,0,1-.69,1.664l-6.04,6.04a2.338,2.338,0,0,1-1.664.69H30.354A2.354,2.354,0,0,1,28,49.187V30.354A2.354,2.354,0,0,1,30.354,28H49.187A2.354,2.354,0,0,1,51.541,30.354ZM30.825,48.716H41.654v-5.65a1.412,1.412,0,0,1,1.412-1.412h5.65V30.825H30.825Zm16.361-4.237H44.479v2.707Z" transform="translate(-28 -28)" fill="currentColor"/>
</svg>
