<svg xmlns="http://www.w3.org/2000/svg" viewBox="0 0 30.694 23.541">
  <path id="user-sound-bold" d="M29.966,52.375a9.208,9.208,0,1,0-11.382,0,15.869,15.869,0,0,0-6.227,4.572,1.535,1.535,0,1,0,2.351,1.975,12.3,12.3,0,0,1,19.135,0,1.535,1.535,0,0,0,2.351-1.975A15.858,15.858,0,0,0,29.966,52.375Zm-11.83-7.23a6.139,6.139,0,1,1,6.139,6.139,6.139,6.139,0,0,1-6.139-6.139Zm24.555,0A18.3,18.3,0,0,1,41.207,52.4a1.535,1.535,0,1,1-2.814-1.21,15.408,15.408,0,0,0,0-12.091,1.535,1.535,0,1,1,2.814-1.21A18.3,18.3,0,0,1,42.692,45.146Zm-5.755-5.53a13.845,13.845,0,0,1,0,11.06,1.535,1.535,0,1,1-2.814-1.23,10.788,10.788,0,0,0,0-8.6,1.535,1.535,0,0,1,2.814-1.23Z" transform="translate(-11.997 -35.928)" fill="currentColor"/>
</svg>
